<svg style="position: absolute; width: 0; height: 0; overflow: hidden;" version="1.1" xmlns="http://www.w3.org/2000/svg" xmlns:xlink="http://www.w3.org/1999/xlink">
<defs>
<symbol id="icon-search" viewBox="0 0 32 32">
<title>search</title>
<path d="M25.064 22.047l6.311 6.311-3.017 3.017-6.311-6.311c-2.293 1.678-5.121 2.669-8.181 2.669-7.658 0-13.867-6.208-13.867-13.867s6.208-13.867 13.867-13.867c7.658 0 13.867 6.208 13.867 13.867 0 3.059-0.991 5.887-2.669 8.181v0zM13.867 23.467c5.302 0 9.6-4.298 9.6-9.6s-4.298-9.6-9.6-9.6c-5.302 0-9.6 4.298-9.6 9.6s4.298 9.6 9.6 9.6z"></path>
</symbol>
<symbol id="icon-user" viewBox="0 0 30 32">
<title>user</title>
<path d="M14.933 0c4.706 0 8.533 3.686 8.533 8.219v2.055c0 4.533-3.827 8.219-8.533 8.219s-8.533-3.686-8.533-8.219v-2.055c0-4.533 3.827-8.219 8.533-8.219zM23.543 18.492c3.757 1.179 6.323 3.873 6.323 7.344v6.164h-29.867v-6.164c0-3.47 2.566-6.164 6.323-7.344 2.276 2.001 5.293 3.234 8.61 3.234s6.334-1.233 8.61-3.234z"></path>
</symbol>
<symbol id="icon-minus" viewBox="0 0 32 32">
<title>minus</title>
<path d="M4 14.667h24q0.552 0 0.943 0.391t0.391 0.943-0.391 0.943-0.943 0.391h-24q-0.552 0-0.943-0.391t-0.391-0.943 0.391-0.943 0.943-0.391z"></path>
</symbol>
<symbol id="icon-cross" viewBox="0 0 32 32">
<title>cross</title>
<path d="M25.333 5.333q0.573 0 0.953 0.38t0.38 0.953q0 0.563-0.385 0.948l-8.396 8.385 8.396 8.385q0.385 0.385 0.385 0.948 0 0.573-0.38 0.953t-0.953 0.38q-0.563 0-0.948-0.385l-8.385-8.396-8.385 8.396q-0.385 0.385-0.948 0.385-0.573 0-0.953-0.38t-0.38-0.953q0-0.563 0.385-0.948l8.396-8.385-8.396-8.385q-0.385-0.385-0.385-0.948 0-0.573 0.38-0.953t0.953-0.38q0.563 0 0.948 0.385l8.385 8.396 8.385-8.396q0.385-0.385 0.948-0.385z"></path>
</symbol>
<symbol id="icon-plus" viewBox="0 0 32 32">
<title>plus</title>
<path d="M16 2.667q0.552 0 0.943 0.391t0.391 0.943v10.667h10.667q0.552 0 0.943 0.391t0.391 0.943-0.391 0.943-0.943 0.391h-10.667v10.667q0 0.552-0.391 0.943t-0.943 0.391-0.943-0.391-0.391-0.943v-10.667h-10.667q-0.552 0-0.943-0.391t-0.391-0.943 0.391-0.943 0.943-0.391h10.667v-10.667q0-0.552 0.391-0.943t0.943-0.391z"></path>
</symbol>
<symbol id="icon-check" viewBox="0 0 32 32">
<title>check</title>
<path d="M28 6.667q0.573 0 0.953 0.38t0.38 0.953q0 0.563-0.385 0.948l-16 16q-0.385 0.385-0.948 0.385t-0.948-0.385l-8-8q-0.385-0.385-0.385-0.948 0-0.573 0.38-0.953t0.953-0.38q0.563 0 0.948 0.385l7.052 7.063 15.052-15.063q0.385-0.385 0.948-0.385z"></path>
</symbol>
<symbol id="icon-arrow-left" viewBox="0 0 18 32">
<title>arrow-left</title>
<path d="M16 31.6c-0.4 0-0.8-0.2-1-0.4l-14-14c-0.6-0.6-0.6-1.6 0-2.2l14-14c0.6-0.6 1.6-0.6 2.2 0s0.6 1.6 0 2.2l-13.2 12.8 13 13c0.6 0.6 0.6 1.6 0 2.2-0.2 0.4-0.6 0.4-1 0.4z"></path>
</symbol>
<symbol id="icon-arrow-right" viewBox="0 0 18 32">
<title>arrow-right</title>
<path d="M2 0.4c0.4 0 0.8 0.2 1 0.4l14 14c0.6 0.6 0.6 1.6 0 2.2l-14 14c-0.6 0.6-1.6 0.6-2.2 0s-0.6-1.6 0-2.2l13.2-12.8-13-13c-0.6-0.6-0.6-1.6 0-2.2 0.2-0.4 0.6-0.4 1-0.4z"></path>
</symbol>
<symbol id="icon-arrow-down" viewBox="0 0 32 32">
<title>arrow-down</title>
<path d="M31.35 9.1c0 0.4-0.2 0.8-0.4 1l-14 14c-0.6 0.6-1.6 0.6-2.2 0l-14-14c-0.6-0.6-0.6-1.6 0-2.2s1.6-0.6 2.2 0l12.8 13.2 13-13c0.6-0.6 1.6-0.6 2.2 0 0.4 0.2 0.4 0.6 0.4 1z"></path>
</symbol>
<symbol id="icon-arrow-up" viewBox="0 0 32 32">
<title>arrow-up</title>
<path d="M31.35 22.9c0-0.4-0.2-0.8-0.4-1l-14-14c-0.6-0.6-1.6-0.6-2.2 0l-14 14c-0.6 0.6-0.6 1.6 0 2.2s1.6 0.6 2.2 0l12.8-13.2 13 13c0.6 0.6 1.6 0.6 2.2 0 0.4-0.2 0.4-0.6 0.4-1z"></path>
</symbol>
</defs>
</svg>
