<svg aria-hidden="true" style="position: absolute; width: 0; height: 0; overflow: hidden;" version="1.1" xmlns="http://www.w3.org/2000/svg" xmlns:xlink="http://www.w3.org/1999/xlink">
<defs>
<symbol id="icon-pencil" viewBox="0 0 32 32">
<title>pencil</title>
<path d="M27 0c2.761 0 5 2.239 5 5 0 1.126-0.372 2.164-1 3l-2 2-7-7 2-2c0.836-0.628 1.874-1 3-1zM2 23l-2 9 9-2 18.5-18.5-7-7-18.5 18.5zM22.362 11.362l-14 14-1.724-1.724 14-14 1.724 1.724z"></path>
</symbol>
<symbol id="icon-bin" viewBox="0 0 32 32">
<title>bin</title>
<path d="M4 10v20c0 1.1 0.9 2 2 2h18c1.1 0 2-0.9 2-2v-20h-22zM10 28h-2v-14h2v14zM14 28h-2v-14h2v14zM18 28h-2v-14h2v14zM22 28h-2v-14h2v14z"></path>
<path d="M26.5 4h-6.5v-2.5c0-0.825-0.675-1.5-1.5-1.5h-7c-0.825 0-1.5 0.675-1.5 1.5v2.5h-6.5c-0.825 0-1.5 0.675-1.5 1.5v2.5h26v-2.5c0-0.825-0.675-1.5-1.5-1.5zM18 4h-6v-1.975h6v1.975z"></path>
</symbol>
<symbol id="icon-search" viewBox="0 0 32 32">
<title>search</title>
<path d="M25.064 22.047l6.311 6.311-3.017 3.017-6.311-6.311c-2.293 1.678-5.121 2.669-8.181 2.669-7.658 0-13.867-6.208-13.867-13.867s6.208-13.867 13.867-13.867c7.658 0 13.867 6.208 13.867 13.867 0 3.059-0.991 5.887-2.669 8.181v0zM13.867 23.467c5.302 0 9.6-4.298 9.6-9.6s-4.298-9.6-9.6-9.6c-5.302 0-9.6 4.298-9.6 9.6s4.298 9.6 9.6 9.6z"></path>
</symbol>
<symbol id="icon-user" viewBox="0 0 30 32">
<title>user</title>
<path d="M14.933 0c4.706 0 8.533 3.686 8.533 8.219v2.055c0 4.533-3.827 8.219-8.533 8.219s-8.533-3.686-8.533-8.219v-2.055c0-4.533 3.827-8.219 8.533-8.219zM23.543 18.492c3.757 1.179 6.323 3.873 6.323 7.344v6.164h-29.867v-6.164c0-3.47 2.566-6.164 6.323-7.344 2.276 2.001 5.293 3.234 8.61 3.234s6.334-1.233 8.61-3.234z"></path>
</symbol>
<symbol id="icon-minus" viewBox="0 0 32 32">
<title>minus</title>
<path d="M4 14.667h24q0.552 0 0.943 0.391t0.391 0.943-0.391 0.943-0.943 0.391h-24q-0.552 0-0.943-0.391t-0.391-0.943 0.391-0.943 0.943-0.391z"></path>
</symbol>
<symbol id="icon-cross" viewBox="0 0 32 32">
<title>cross</title>
<path d="M25.333 5.333q0.573 0 0.953 0.38t0.38 0.953q0 0.563-0.385 0.948l-8.396 8.385 8.396 8.385q0.385 0.385 0.385 0.948 0 0.573-0.38 0.953t-0.953 0.38q-0.563 0-0.948-0.385l-8.385-8.396-8.385 8.396q-0.385 0.385-0.948 0.385-0.573 0-0.953-0.38t-0.38-0.953q0-0.563 0.385-0.948l8.396-8.385-8.396-8.385q-0.385-0.385-0.385-0.948 0-0.573 0.38-0.953t0.953-0.38q0.563 0 0.948 0.385l8.385 8.396 8.385-8.396q0.385-0.385 0.948-0.385z"></path>
</symbol>
<symbol id="icon-plus" viewBox="0 0 32 32">
<title>plus</title>
<path d="M16 2.667q0.552 0 0.943 0.391t0.391 0.943v10.667h10.667q0.552 0 0.943 0.391t0.391 0.943-0.391 0.943-0.943 0.391h-10.667v10.667q0 0.552-0.391 0.943t-0.943 0.391-0.943-0.391-0.391-0.943v-10.667h-10.667q-0.552 0-0.943-0.391t-0.391-0.943 0.391-0.943 0.943-0.391h10.667v-10.667q0-0.552 0.391-0.943t0.943-0.391z"></path>
</symbol>
<symbol id="icon-check" viewBox="0 0 32 32">
<title>check</title>
<path d="M28 6.667q0.573 0 0.953 0.38t0.38 0.953q0 0.563-0.385 0.948l-16 16q-0.385 0.385-0.948 0.385t-0.948-0.385l-8-8q-0.385-0.385-0.385-0.948 0-0.573 0.38-0.953t0.953-0.38q0.563 0 0.948 0.385l7.052 7.063 15.052-15.063q0.385-0.385 0.948-0.385z"></path>
</symbol>
<symbol id="icon-arrow-left" viewBox="0 0 18 32">
<title>arrow-left</title>
<path d="M16 31.6c-0.4 0-0.8-0.2-1-0.4l-14-14c-0.6-0.6-0.6-1.6 0-2.2l14-14c0.6-0.6 1.6-0.6 2.2 0s0.6 1.6 0 2.2l-13.2 12.8 13 13c0.6 0.6 0.6 1.6 0 2.2-0.2 0.4-0.6 0.4-1 0.4z"></path>
</symbol>
<symbol id="icon-arrow-right" viewBox="0 0 18 32">
<title>arrow-right</title>
<path d="M2 0.4c0.4 0 0.8 0.2 1 0.4l14 14c0.6 0.6 0.6 1.6 0 2.2l-14 14c-0.6 0.6-1.6 0.6-2.2 0s-0.6-1.6 0-2.2l13.2-12.8-13-13c-0.6-0.6-0.6-1.6 0-2.2 0.2-0.4 0.6-0.4 1-0.4z"></path>
</symbol>
<symbol id="icon-arrow-down" viewBox="0 0 32 32">
<title>arrow-down</title>
<path d="M31.35 9.1c0 0.4-0.2 0.8-0.4 1l-14 14c-0.6 0.6-1.6 0.6-2.2 0l-14-14c-0.6-0.6-0.6-1.6 0-2.2s1.6-0.6 2.2 0l12.8 13.2 13-13c0.6-0.6 1.6-0.6 2.2 0 0.4 0.2 0.4 0.6 0.4 1z"></path>
</symbol>
<symbol id="icon-arrow-up" viewBox="0 0 32 32">
<title>arrow-up</title>
<path d="M31.35 22.9c0-0.4-0.2-0.8-0.4-1l-14-14c-0.6-0.6-1.6-0.6-2.2 0l-14 14c-0.6 0.6-0.6 1.6 0 2.2s1.6 0.6 2.2 0l12.8-13.2 13 13c0.6 0.6 1.6 0.6 2.2 0 0.4-0.2 0.4-0.6 0.4-1z"></path>
</symbol>
<symbol id="icon-info" viewBox="0 0 13 32">
<title>info</title>
<path d="M1.949 12.86v-1.303c0.383-0.153 0.894-0.313 1.533-0.479s1.316-0.313 2.031-0.441c0.715-0.128 1.424-0.236 2.127-0.326s1.322-0.134 1.859-0.134l0.69 0.46-3.449 16.519h2.683v1.303c-0.332 0.23-0.722 0.447-1.169 0.652s-0.92 0.383-1.418 0.537c-0.498 0.153-1.003 0.275-1.514 0.364s-0.997 0.134-1.456 0.134c-0.971 0-1.642-0.185-2.012-0.556s-0.556-0.773-0.556-1.207c0-0.511 0.038-1.009 0.115-1.495s0.179-1.022 0.307-1.61l2.606-11.881-2.376-0.537zM5.168 4.236c0-0.869 0.294-1.546 0.881-2.031s1.329-0.728 2.223-0.728c0.971 0 1.744 0.243 2.319 0.728s0.862 1.163 0.862 2.031c0 0.818-0.287 1.469-0.862 1.955s-1.348 0.728-2.319 0.728c-0.894 0-1.635-0.243-2.223-0.728s-0.881-1.137-0.881-1.955v0z"></path>
</symbol>
<symbol id="icon-file-empty" viewBox="0 0 32 32">
<title>file-empty</title>
<path d="M28.681 7.159c-0.694-0.947-1.662-2.053-2.724-3.116s-2.169-2.030-3.116-2.724c-1.612-1.182-2.393-1.319-2.841-1.319h-15.5c-1.378 0-2.5 1.121-2.5 2.5v27c0 1.378 1.122 2.5 2.5 2.5h23c1.378 0 2.5-1.122 2.5-2.5v-19.5c0-0.448-0.137-1.23-1.319-2.841zM24.543 5.457c0.959 0.959 1.712 1.825 2.268 2.543h-4.811v-4.811c0.718 0.556 1.584 1.309 2.543 2.268zM28 29.5c0 0.271-0.229 0.5-0.5 0.5h-23c-0.271 0-0.5-0.229-0.5-0.5v-27c0-0.271 0.229-0.5 0.5-0.5 0 0 15.499-0 15.5 0v7c0 0.552 0.448 1 1 1h7v19.5z"></path>
</symbol>
</defs>
</svg>
