<svg width="70" height="70" viewBox="0 0 16 16" xmlns="http://www.w3.org/2000/svg"><title>otr_favicon</title><g fill="#005B23" fill-rule="evenodd"><path d="M36.23 42.608l6.375-4.872a6.848 6.848 0 0 1-5.432-3.929 6.857 6.857 0 0 1-2.224.375 6.806 6.806 0 0 1-2.502-.488l-4.21 5.809 7.973 3.096.02.01M47.321 41.164l4.153-4.135a7.036 7.036 0 0 1-.911-1.529c-.609.238-1.246.42-1.904.54a6.864 6.864 0 0 1-3.593 2.88l-4.119 3.148 6.374-.904M19.158 38.187l5.122 1.186-1.802-2.067a7.665 7.665 0 0 1-3.32.881M27.264 31.889a6.654 6.654 0 0 1-1.748.248 7.637 7.637 0 0 1-2.727 4.992l2.616 3 4.101-5.656a6.87 6.87 0 0 1-2.242-2.584"/><path d="M29.073 48.149l4.079-3.117-8-3.107-11.163-2.585a5.155 5.155 0 0 1-3.161 1.016c-2.678-.046-4.95-2.224-5.09-4.887-.143-2.718 1.827-5 4.42-5.38.463-3.791 3.705-6.728 7.638-6.728.416 0 .824.034 1.222.097a6.639 6.639 0 0 1 6.376-4.767c2.53 0 4.73 1.409 5.852 3.482a6.875 6.875 0 0 1 4.808.238 10.279 10.279 0 0 1 9.716-6.892c5.576 0 10.111 4.42 10.271 9.934 3.904.006 7.066 3.158 7.066 7.045v.03a5.114 5.114 0 0 1 2.652 5.286c-.325 2.2-2.127 3.975-4.338 4.288a5.12 5.12 0 0 1-4.038-1.147l-19.89 2.74-6.654 5.083 4.64 13.549a6.61 6.61 0 0 0 6.26 4.458h7.751c2.569 0 5.072-.84 7.099-2.41 8.305-6.436 13.573-16.57 13.299-27.921C69.436 17.724 54.268 3 35.448 3 16.424 3 1 18.356 1 37.298 1 48.284 6.19 58.06 14.26 64.336a11.646 11.646 0 0 0 7.149 2.449h5.063c2.638 0 4.677-2.304 4.346-4.909L29.073 48.15"/><path d="M57.305 38.911a7.061 7.061 0 0 1-4.63-1.606l-2.649 2.639 7.28-1.033"/></g></svg>