<!-- Generated by IcoMoon.io -->
<svg version="1.1" xmlns="http://www.w3.org/2000/svg" width="32" height="32" viewBox="0 0 32 32">
<title>search</title>
<path d="M25.064 22.047l6.311 6.311-3.017 3.017-6.311-6.311c-2.293 1.678-5.121 2.669-8.181 2.669-7.658 0-13.867-6.208-13.867-13.867s6.208-13.867 13.867-13.867c7.658 0 13.867 6.208 13.867 13.867 0 3.059-0.991 5.887-2.669 8.181v0zM13.867 23.467c5.302 0 9.6-4.298 9.6-9.6s-4.298-9.6-9.6-9.6c-5.302 0-9.6 4.298-9.6 9.6s4.298 9.6 9.6 9.6z"></path>
</svg>
