<!-- Generated by IcoMoon.io -->
<svg version="1.1" xmlns="http://www.w3.org/2000/svg" width="13" height="32" viewBox="0 0 13 32">
<title>info</title>
<path d="M1.949 12.86v-1.303c0.383-0.153 0.894-0.313 1.533-0.479s1.316-0.313 2.031-0.441c0.715-0.128 1.424-0.236 2.127-0.326s1.322-0.134 1.859-0.134l0.69 0.46-3.449 16.519h2.683v1.303c-0.332 0.23-0.722 0.447-1.169 0.652s-0.92 0.383-1.418 0.537c-0.498 0.153-1.003 0.275-1.514 0.364s-0.997 0.134-1.456 0.134c-0.971 0-1.642-0.185-2.012-0.556s-0.556-0.773-0.556-1.207c0-0.511 0.038-1.009 0.115-1.495s0.179-1.022 0.307-1.61l2.606-11.881-2.376-0.537zM5.168 4.236c0-0.869 0.294-1.546 0.881-2.031s1.329-0.728 2.223-0.728c0.971 0 1.744 0.243 2.319 0.728s0.862 1.163 0.862 2.031c0 0.818-0.287 1.469-0.862 1.955s-1.348 0.728-2.319 0.728c-0.894 0-1.635-0.243-2.223-0.728s-0.881-1.137-0.881-1.955v0z"></path>
</svg>
